<svg width="48" height="48" viewBox="0 0 48 48" fill="none" xmlns="http://www.w3.org/2000/svg">
<g clip-path="url(#clip0_2_132)">
<path d="M3.14415 30.296L3.70305 30.9171L3.4236 30.1096C3.3537 29.7369 2.8647 30.1717 3.14415 30.296ZM3.77295 29.9233C3.9825 30.2339 4.1922 30.5444 4.1922 30.8549C4.1922 31.2897 4.61145 31.476 4.96065 31.6001C4.4715 31.1033 4.19205 29.7369 3.77295 29.9233ZM30.6026 3.59052C31.7903 3.59052 32.9082 3.46625 34.166 3.71465C37.2402 4.39785 39.8253 5.76412 41.5721 7.68945L46.463 14.6453C46.6725 16.3843 47.0918 18.3096 47.0219 20.4212C47.511 20.4212 47.4411 19.8001 48 19.6759C47.4411 20.918 47.1615 22.4707 47.0219 24.2717C46.6725 23.278 47.0219 21.7875 47.0918 20.9801C46.6026 21.6633 46.3232 21.1664 46.3232 20.8559C46.3931 20.3591 46.1136 20.4211 45.9039 20.2348C45.1353 19.6137 44.6463 18.9305 44.0874 17.8748C44.4367 17.0675 44.5067 15.8875 43.3887 15.2664C43.0394 15.0801 42.6201 14.7696 42.4106 14.2727C42.1311 13.5895 41.642 12.7821 41.7816 11.7264C41.8515 11.4159 40.7336 12.4096 40.1048 11.9748C37.3798 10.298 34.655 8.37265 31.3712 6.75785C29.6244 6.75785 28.3668 6.19892 27.738 5.51572C27.1791 4.89465 27.5982 4.08732 28.4367 4.02519C28.9259 4.02519 29.4848 3.90092 29.904 4.14945C29.9739 3.90105 30.2534 3.59052 30.6026 3.59052ZM23.6856 2.16199L23.8254 2.22412C24.5241 2.34839 24.8735 3.21785 25.6419 2.90732C25.6419 3.34212 25.7118 3.77679 25.572 4.08732C25.3625 4.58412 24.7335 4.58412 24.2445 4.58412C19.5633 4.33572 16.8384 6.07465 13.9739 7.56519C13.2053 7.99999 12.3669 8.31052 11.738 8.86945C8.7336 11.3537 5.4498 13.6516 4.6812 18.2475L4.0524 23.3401C3.9825 23.8991 3.2838 24.458 3.4236 25.1412L3.9126 28.1844C3.42345 27.7496 3.144 28.3087 3.2838 28.5571C3.3537 28.7433 3.63315 29.3644 4.0524 28.8055C4.6113 29.7371 5.17035 31.5381 5.9388 32.3455C8.31435 34.8297 11.3886 37.0655 13.904 39.3013C14.5328 39.1771 15.0219 39.1771 15.1616 38.8044C15.3711 39.1771 14.952 39.5497 14.6027 39.6119C15.7206 40.2329 16.9782 40.7919 18.6551 40.916C20.8211 41.0403 22.8473 41.3508 24.7337 41.7856C25.7118 41.5372 26.69 41.4129 27.738 41.3508C28.0874 41.3508 28.2969 40.854 28.7162 40.7297L28.7861 40.1087C29.2053 40.6676 29.1354 39.9224 28.856 39.5497C29.3451 39.9224 29.4848 40.2329 29.6943 40.4813C29.6943 40.2951 30.2532 39.6119 30.2534 40.4192L30.393 39.6119C30.6026 39.4876 30.6725 40.2951 30.8822 39.736C31.0917 39.1771 31.511 39.6117 31.9302 39.4255C31.7904 39.6739 31.8603 40.1708 32.3493 39.8603L32.9084 39.4255C33.2577 40.1708 33.8166 39.8603 34.0961 39.736C37.1703 37.9971 40.2445 35.9476 43.179 33.8981L43.1091 34.7055L43.4585 33.7117C43.8078 34.0223 44.0872 33.7739 44.227 33.5876C44.6463 32.9665 45.2052 32.3455 46.1136 31.7865C44.9957 34.4571 43.6681 36.5687 41.9913 38.3076L41.2926 39.0529C41.2926 39.4877 41.1528 40.0467 40.5939 40.1087C40.3145 40.1708 39.7554 39.9844 39.3363 40.3571C39.1268 40.6055 39.8255 41.1024 39.2664 40.7297C38.7773 40.4192 38.2883 40.7297 37.7292 40.854C37.31 40.9783 38.0087 41.3508 38.1485 41.5992C38.2883 41.8476 38.4279 42.096 38.3582 42.4067L37.5896 41.6613C36.6813 42.0961 36.1223 42.9035 35.3537 43.5245C35.0043 43.7729 35.1441 44.2077 35.1441 44.5803C34.655 44.5803 34.0961 44.456 33.8166 44.7045C33.6071 44.9529 33.6768 45.3256 33.6768 45.6983C32.9781 45.6361 32.9082 44.7045 32.2796 44.8908C31.6508 45.0151 30.9521 45.0771 30.393 45.3877C30.8123 46.1331 29.6943 45.6983 29.8341 45.8224C28.7861 45.2635 27.8778 44.8287 26.7599 45.2013C24.3843 44.5181 21.4499 44.8287 19.2839 45.0772C19.2839 44.7667 19.3538 44.4561 19.214 44.394C19.0742 44.7045 18.6551 44.5803 18.725 44.5803C17.3975 43.7729 16.07 43.276 14.6726 42.5929C13.415 42.7172 12.2271 42.1581 11.8778 41.8476C10.8996 41.0403 9.78165 41.4749 8.8734 41.2887C6.9171 40.8539 6.2184 39.0528 6.0087 37.8108C5.8689 37.1897 5.31 36.9413 5.10045 37.0033C4.1922 34.3949 2.7948 32.0349 1.67685 29.6128C1.3974 28.9917 1.4673 28.3707 1.4673 27.6875C1.81665 27.8117 2.166 27.7496 2.0961 27.3149C1.74675 25.2655 0.9084 23.7128 0 22.2223C0.48915 20.1107 0.5589 17.6264 1.67685 15.7632C2.655 14.0864 4.47165 13.2168 5.72925 11.7884C6.1485 11.2916 6.1485 10.6084 6.56775 10.1737C7.96515 8.93159 9.36255 7.62732 10.8996 6.50945C11.5983 6.01265 12.4367 6.50945 13.4847 6.32319C13.8341 5.20532 15.2315 4.21159 16.559 4.52212C17.1179 4.64639 18.2358 3.34212 18.5852 3.21785C19.1441 3.03159 18.8646 3.71465 18.8646 4.14945C20.1921 3.21785 22.0088 2.72105 23.6856 2.16199Z" fill="#C770F0"/>
<path d="M27 31L26.7822 29.0447C26.1183 28.9475 25.666 28.7626 25.4253 28.4903C25.1888 28.2179 25.0705 27.7704 25.0705 27.1479V19.2393C25.0705 18.7724 25.1224 18.4514 25.2261 18.2763C25.3299 18.1012 25.5166 18.0136 25.7863 18.0136L26.6888 18.0428L26.9066 17.8093L26.6577 16.1167L23.1411 16.1459C22.3735 16.1459 21.5373 16.1265 20.6328 16.0875C19.7324 16.0486 19.1058 16.0195 18.7531 16C16.2012 16 14.4378 16.4611 13.4627 17.3833C12.4876 18.3093 12 19.3949 12 20.6401C12 21.5739 12.2905 22.4494 12.8714 23.2665C13.4523 24.0837 14.2344 24.7354 15.2178 25.2218C16.2054 25.7082 17.249 25.9514 18.3486 25.9514H20.5581L20.5892 27.2062C20.5892 27.8872 20.5062 28.3444 20.3403 28.5778C20.1743 28.8113 19.8319 28.928 19.3133 28.928C19.1058 28.928 18.9087 28.9183 18.722 28.8988C18.5353 28.8794 18.4108 28.8697 18.3486 28.8697L18.2552 29.0447L18.5041 30.8833C18.8153 30.8833 19.3651 30.8697 20.1535 30.8424C20.9419 30.8113 21.6784 30.7957 22.3631 30.7957C22.8818 30.7957 23.6909 30.8249 24.7905 30.8833C25.89 30.9416 26.6266 30.9805 27 31ZM18.5664 23.6167C17.9647 23.4611 17.5187 23.1595 17.2282 22.7121C16.9378 22.2646 16.7925 21.6615 16.7925 20.9027C16.7925 20.1051 17.0311 19.5253 17.5083 19.1634C17.9855 18.8054 18.7531 18.6265 19.8112 18.6265C19.9979 18.6265 20.1162 18.6556 20.166 18.714C20.2199 18.7724 20.2573 18.8988 20.278 19.0934C20.4025 20.6887 20.4751 22.1089 20.4959 23.3541L18.5664 23.6167Z" fill="#C770F0"/>
<path d="M31.0206 31C30.3202 31 29.7366 30.8401 29.2697 30.5202C28.8028 30.2042 28.3995 29.6802 28.0599 28.948L26.2135 25.3931H24.6217L24.5899 27.185C24.5899 27.6667 24.6323 28.0135 24.7172 28.2254C24.8021 28.4374 24.9677 28.5819 25.2139 28.659C25.4558 28.736 25.8739 28.7842 26.4682 28.8035L26.5955 28.9769L26.3408 30.7399C26.0225 30.7399 25.4558 30.7264 24.6408 30.6994C23.8216 30.6686 23.0406 30.6532 22.2978 30.6532C21.5337 30.6532 20.6954 30.6821 19.7828 30.7399C18.8702 30.7977 18.2759 30.8362 18 30.8555L18.2228 28.9191C18.902 28.8227 19.3689 28.6397 19.6236 28.3699C19.8783 28.1002 20.0056 27.657 20.0056 27.0405V19.0058C20.0056 18.6204 19.9526 18.3545 19.8464 18.2081C19.7403 18.0655 19.5493 17.9942 19.2734 17.9942L18.3502 18.0231L18.1273 17.7919L18.382 16.1156L21.9794 16.1445C22.8071 16.1445 23.6879 16.1252 24.6217 16.0867C25.5556 16.0482 26.2029 16.0193 26.5637 16C28.8558 16 30.5855 16.3468 31.7528 17.0405C32.9201 17.7341 33.5037 18.7649 33.5037 20.1329C33.5037 21.0193 33.2236 21.8227 32.6633 22.5434C32.0988 23.2678 31.2859 23.8902 30.2247 24.4104L32.0712 26.9538C33.005 28.264 33.8964 28.9191 34.7453 28.9191L35 29.237L34.7772 30.7688L31.0206 31ZM26.8184 22.9942C27.3914 22.7823 27.8371 22.4933 28.1554 22.1272C28.4738 21.7611 28.633 21.2505 28.633 20.5954C28.633 19.9017 28.3677 19.3911 27.8371 19.0636C27.3065 18.736 26.4788 18.5723 25.3539 18.5723C25.1841 18.5723 25.0674 18.605 25.0037 18.6705C24.9401 18.7399 24.9082 18.8805 24.9082 19.0925C24.7809 20.3642 24.7172 21.5877 24.7172 22.763L26.8184 22.9942Z" fill="#C770F0"/>
</g>
<defs>
<clipPath id="clip0_2_132">
<rect width="48" height="48" fill="white"/>
</clipPath>
</defs>
</svg>
