<svg width="48" height="48" viewBox="0 0 48 48" fill="none" xmlns="http://www.w3.org/2000/svg">
<path d="M3.14415 30.296L3.70305 30.9171L3.4236 30.1096C3.3537 29.7369 2.8647 30.1717 3.14415 30.296ZM3.77295 29.9233C3.9825 30.2339 4.1922 30.5444 4.1922 30.8549C4.1922 31.2897 4.61145 31.476 4.96065 31.6001C4.4715 31.1033 4.19205 29.7369 3.77295 29.9233ZM30.6026 3.59052C31.7903 3.59052 32.9082 3.46625 34.166 3.71465C37.2402 4.39785 39.8253 5.76412 41.5721 7.68945L46.463 14.6453C46.6725 16.3843 47.0918 18.3096 47.0219 20.4212C47.511 20.4212 47.4411 19.8001 48 19.6759C47.4411 20.918 47.1615 22.4707 47.0219 24.2717C46.6725 23.278 47.0219 21.7875 47.0918 20.9801C46.6026 21.6633 46.3232 21.1664 46.3232 20.8559C46.3931 20.3591 46.1136 20.4211 45.9039 20.2348C45.1353 19.6137 44.6463 18.9305 44.0874 17.8748C44.4367 17.0675 44.5067 15.8875 43.3887 15.2664C43.0394 15.0801 42.6201 14.7696 42.4106 14.2727C42.1311 13.5895 41.642 12.7821 41.7816 11.7264C41.8515 11.4159 40.7336 12.4096 40.1048 11.9748C37.3798 10.298 34.655 8.37265 31.3712 6.75785C29.6244 6.75785 28.3668 6.19892 27.738 5.51572C27.1791 4.89465 27.5982 4.08732 28.4367 4.02519C28.9259 4.02519 29.4848 3.90092 29.904 4.14945C29.9739 3.90105 30.2534 3.59052 30.6026 3.59052ZM23.6856 2.16199L23.8254 2.22412C24.5241 2.34839 24.8735 3.21785 25.6419 2.90732C25.6419 3.34212 25.7118 3.77679 25.572 4.08732C25.3625 4.58412 24.7335 4.58412 24.2445 4.58412C19.5633 4.33572 16.8384 6.07465 13.9739 7.56519C13.2053 7.99999 12.3669 8.31052 11.738 8.86945C8.7336 11.3537 5.4498 13.6516 4.6812 18.2475L4.0524 23.3401C3.9825 23.8991 3.2838 24.458 3.4236 25.1412L3.9126 28.1844C3.42345 27.7496 3.144 28.3087 3.2838 28.5571C3.3537 28.7433 3.63315 29.3644 4.0524 28.8055C4.6113 29.7371 5.17035 31.5381 5.9388 32.3455C8.31435 34.8297 11.3886 37.0655 13.904 39.3013C14.5328 39.1771 15.0219 39.1771 15.1616 38.8044C15.3711 39.1771 14.952 39.5497 14.6027 39.6119C15.7206 40.2329 16.9782 40.7919 18.6551 40.916C20.8211 41.0403 22.8473 41.3508 24.7337 41.7856C25.7118 41.5372 26.69 41.4129 27.738 41.3508C28.0874 41.3508 28.2969 40.854 28.7162 40.7297L28.7861 40.1087C29.2053 40.6676 29.1354 39.9224 28.856 39.5497C29.3451 39.9224 29.4848 40.2329 29.6943 40.4813C29.6943 40.2951 30.2532 39.6119 30.2534 40.4192L30.393 39.6119C30.6026 39.4876 30.6725 40.2951 30.8822 39.736C31.0917 39.1771 31.511 39.6117 31.9302 39.4255C31.7904 39.6739 31.8603 40.1708 32.3493 39.8603L32.9084 39.4255C33.2577 40.1708 33.8166 39.8603 34.0961 39.736C37.1703 37.9971 40.2445 35.9476 43.179 33.8981L43.1091 34.7055L43.4585 33.7117C43.8078 34.0223 44.0872 33.7739 44.227 33.5876C44.6463 32.9665 45.2052 32.3455 46.1136 31.7865C44.9957 34.4571 43.6681 36.5687 41.9913 38.3076L41.2926 39.0529C41.2926 39.4877 41.1528 40.0467 40.5939 40.1087C40.3145 40.1708 39.7554 39.9844 39.3363 40.3571C39.1268 40.6055 39.8255 41.1024 39.2664 40.7297C38.7773 40.4192 38.2883 40.7297 37.7292 40.854C37.31 40.9783 38.0087 41.3508 38.1485 41.5992C38.2883 41.8476 38.4279 42.096 38.3582 42.4067L37.5896 41.6613C36.6813 42.0961 36.1223 42.9035 35.3537 43.5245C35.0043 43.7729 35.1441 44.2077 35.1441 44.5803C34.655 44.5803 34.0961 44.456 33.8166 44.7045C33.6071 44.9529 33.6768 45.3256 33.6768 45.6983C32.9781 45.6361 32.9082 44.7045 32.2796 44.8908C31.6508 45.0151 30.9521 45.0771 30.393 45.3877C30.8123 46.1331 29.6943 45.6983 29.8341 45.8224C28.7861 45.2635 27.8778 44.8287 26.7599 45.2013C24.3843 44.5181 21.4499 44.8287 19.2839 45.0772C19.2839 44.7667 19.3538 44.4561 19.214 44.394C19.0742 44.7045 18.6551 44.5803 18.725 44.5803C17.3975 43.7729 16.07 43.276 14.6726 42.5929C13.415 42.7172 12.2271 42.1581 11.8778 41.8476C10.8996 41.0403 9.78165 41.4749 8.8734 41.2887C6.9171 40.8539 6.2184 39.0528 6.0087 37.8108C5.8689 37.1897 5.31 36.9413 5.10045 37.0033C4.1922 34.3949 2.7948 32.0349 1.67685 29.6128C1.3974 28.9917 1.4673 28.3707 1.4673 27.6875C1.81665 27.8117 2.166 27.7496 2.0961 27.3149C1.74675 25.2655 0.9084 23.7128 0 22.2223C0.48915 20.1107 0.5589 17.6264 1.67685 15.7632C2.655 14.0864 4.47165 13.2168 5.72925 11.7884C6.1485 11.2916 6.1485 10.6084 6.56775 10.1737C7.96515 8.93159 9.36255 7.62732 10.8996 6.50945C11.5983 6.01265 12.4367 6.50945 13.4847 6.32319C13.8341 5.20532 15.2315 4.21159 16.559 4.52212C17.1179 4.64639 18.2358 3.34212 18.5852 3.21785C19.1441 3.03159 18.8646 3.71465 18.8646 4.14945C20.1921 3.21785 22.0088 2.72105 23.6856 2.16199Z" fill="white"/>
<path d="M26 32L26.2178 30.0447C26.8817 29.9475 27.334 29.7626 27.5747 29.4903C27.8112 29.2179 27.9295 28.7704 27.9295 28.1479V20.2393C27.9295 19.7724 27.8776 19.4514 27.7739 19.2763C27.6701 19.1012 27.4834 19.0136 27.2137 19.0136L26.3112 19.0428L26.0934 18.8093L26.3423 17.1167L29.8589 17.1459C30.6266 17.1459 31.4627 17.1265 32.3672 17.0875C33.2676 17.0486 33.8942 17.0195 34.2469 17C36.7988 17 38.5622 17.4611 39.5373 18.3833C40.5124 19.3093 41 20.3949 41 21.6401C41 22.5739 40.7095 23.4494 40.1286 24.2665C39.5477 25.0837 38.7656 25.7354 37.7822 26.2218C36.7946 26.7082 35.751 26.9514 34.6514 26.9514H32.4419L32.4108 28.2062C32.4108 28.8872 32.4938 29.3444 32.6597 29.5778C32.8257 29.8113 33.1681 29.928 33.6867 29.928C33.8942 29.928 34.0913 29.9183 34.278 29.8988C34.4647 29.8794 34.5892 29.8697 34.6514 29.8697L34.7448 30.0447L34.4959 31.8833C34.1847 31.8833 33.6349 31.8697 32.8465 31.8424C32.0581 31.8113 31.3216 31.7957 30.6369 31.7957C30.1182 31.7957 29.3091 31.8249 28.2095 31.8833C27.11 31.9416 26.3734 31.9805 26 32ZM34.4336 24.6167C35.0353 24.4611 35.4813 24.1595 35.7718 23.7121C36.0622 23.2646 36.2075 22.6615 36.2075 21.9027C36.2075 21.1051 35.9689 20.5253 35.4917 20.1634C35.0145 19.8054 34.2469 19.6265 33.1888 19.6265C33.0021 19.6265 32.8838 19.6556 32.834 19.714C32.7801 19.7724 32.7427 19.8988 32.722 20.0934C32.5975 21.6887 32.5249 23.109 32.5041 24.3541L34.4336 24.6167Z" fill="white"/>
<path d="M20.0206 32C19.3202 32 18.7366 31.8401 18.2697 31.5202C17.8027 31.2042 17.3995 30.6802 17.0599 29.948L15.2135 26.3931H13.6217L13.5899 28.185C13.5899 28.6667 13.6323 29.0135 13.7172 29.2254C13.8021 29.4374 13.9677 29.5819 14.2139 29.659C14.4558 29.736 14.8739 29.7842 15.4682 29.8035L15.5955 29.9769L15.3408 31.7399C15.0225 31.7399 14.4558 31.7264 13.6408 31.6994C12.8216 31.6686 12.0406 31.6532 11.2978 31.6532C10.5337 31.6532 9.69538 31.6821 8.78277 31.7399C7.87016 31.7977 7.27591 31.8362 7 31.8555L7.22285 29.9191C7.902 29.8227 8.36891 29.6397 8.6236 29.3699C8.87828 29.1002 9.00562 28.657 9.00562 28.0405V20.0058C9.00562 19.6204 8.95256 19.3545 8.84644 19.2081C8.74032 19.0655 8.54931 18.9942 8.27341 18.9942L7.35019 19.0231L7.12734 18.7919L7.38202 17.1156L10.9794 17.1445C11.8071 17.1445 12.6879 17.1252 13.6217 17.0867C14.5556 17.0482 15.2029 17.0193 15.5637 17C17.8558 17 19.5855 17.3468 20.7528 18.0405C21.9201 18.7341 22.5037 19.7649 22.5037 21.1329C22.5037 22.0193 22.2236 22.8227 21.6633 23.5434C21.0988 24.2678 20.2859 24.8902 19.2247 25.4104L21.0712 27.9538C22.005 29.264 22.8964 29.9191 23.7453 29.9191L24 30.237L23.7772 31.7688L20.0206 32ZM15.8184 23.9942C16.3914 23.7823 16.8371 23.4933 17.1554 23.1272C17.4738 22.7611 17.633 22.2505 17.633 21.5954C17.633 20.9017 17.3677 20.3911 16.8371 20.0636C16.3065 19.736 15.4788 19.5723 14.3539 19.5723C14.1841 19.5723 14.0674 19.605 14.0037 19.6705C13.9401 19.7399 13.9082 19.8805 13.9082 20.0925C13.7809 21.3642 13.7172 22.5877 13.7172 23.763L15.8184 23.9942Z" fill="white"/>
</svg>
